# xmcd
#
# Track frame offsets:
#	150
#	16727
#	33647
#	49635
#	67177
#	80260
#	97747
#	110820
#	128932
#	145105
#
# Disc length: 2270 seconds
#
# Revision: 1
# Processed by: cddbd v1.4PL0 Copyright (c) Steve Scherf et al.
# Submitted via: dBpowerAMP V4.0
#
DISCID=8108dc0a
DTITLE=Sawyer Brown - Can You Hear Me Now
DYEAR=2002
DGENRE=Country
TTITLE0=Can You Hear Me Now
TTITLE1=I Need A Girlfriend
TTITLE2=Circles
TTITLE3=Where Was I
TTITLE4=Hard, Hard, World
TTITLE5=I've Got To Have You Girl
TTITLE6=When The Sun Don't Always Shine
TTITLE7=Someone
TTITLE8=Come Back Baby
TTITLE9=I Got A Plan
EXTD=
EXTT0=
EXTT1=
EXTT2=
EXTT3=
EXTT4=
EXTT5=
EXTT6=
EXTT7=
EXTT8=
EXTT9=
PLAYORDER=
